<svg width="144" height="144" viewBox="0 0 144 144" fill="none" xmlns="http://www.w3.org/2000/svg">
<mask id="mask0" mask-type="alpha" maskUnits="userSpaceOnUse" x="0" y="0" width="144" height="144">
<circle cx="72" cy="72" r="72" fill="#1FAF7C"/>
</mask>
<g mask="url(#mask0)">
<circle cx="72" cy="72" r="72" fill="#E84848"/>
<path opacity="0.2" fill-rule="evenodd" clip-rule="evenodd" d="M46.6693 93.6602C57.6537 115.361 63.3911 126.614 68.6112 136.789L69.2895 138.111C70.4165 140.307 71.5287 142.47 72.6749 144.699C78.2414 155.522 92.0675 161.1 104.077 156.894C106.778 155.955 109.147 154.6 111.133 152.944L108.026 156.014C103.376 160.186 97.6951 163.575 91.1167 165.877C65.3794 174.872 35.321 163.778 22.8627 141.061L-12 72.9662L-11.9551 72.9443C-10.4959 72.2405 26.1887 55.0316 46.6693 93.6602ZM108.661 68C126.519 68 140.993 82.1126 140.993 99.5197C141.558 132.061 109.413 160.811 85.5449 151.475C106.388 140.762 105.272 131.851 105.084 130.894L105.07 130.83C105.067 130.816 105.065 130.809 105.065 130.809C88.9071 129.063 76.3319 115.739 76.3319 99.5197C76.3319 82.1126 90.8086 68 108.661 68Z" fill="white"/>
</g>
<path d="M98.5 45.5L45.5 98.5" stroke="white" stroke-width="5" stroke-linecap="round" stroke-linejoin="round"/>
<path d="M45.5 45.5L98.5 98.5" stroke="white" stroke-width="5" stroke-linecap="round" stroke-linejoin="round"/>
</svg>
